<?xml version="1.0" encoding="UTF-8"?><svg id="Layer_2" xmlns="http://www.w3.org/2000/svg" viewBox="0 0 48 48"><defs><style>.cls-1{fill:#fff;}.cls-2{font-family:BCAlphapipeRB-Regular, 'BC Alphapipe';font-size:32.79px;}</style></defs><g id="Layer_1-2"><circle class="cls-1" cx="24" cy="24" r="23"/><path d="m24,2c12.13,0,22,9.87,22,22s-9.87,22-22,22S2,36.13,2,24,11.87,2,24,2m0-2h0C10.75,0,0,10.75,0,24h0c0,13.25,10.75,24,24,24h0c13.25,0,24-10.75,24-24h0C48,10.75,37.25,0,24,0h0Z"/><text class="cls-2" transform="translate(2.27 34.59) scale(1.19 1)"><tspan x="0" y="0">M</tspan></text><polyline points="5.44 34.36 3.5 36.5 2.66 34.86"/></g></svg>