<?xml version="1.0" encoding="UTF-8"?><svg id="Layer_2" xmlns="http://www.w3.org/2000/svg" viewBox="0 0 75.13 33.01"><defs><style>.cls-1{fill:#f4f4f4;}.cls-2{fill:#ff0;}</style></defs><g id="Layer_1-2"><path class="cls-1" d="m31.14,5.9c-.39.24-.78.48-1.2.72-.48.3-.93.66-1.41,1.02-.12.09-.21.21-.3.33-.06.06-.12.09-.15.12-.21.21-.45.42-.66.66l-.81,1.11c-.12.15-.24.33-.33.51-.33.51-.63,1.02-.96,1.5-.3.54-.63,1.08-.96,1.59-.06.12-.06.27-.12.39-.27.48-.51.99-.78,1.47-.15.24-.3.51-.39.78-.15.36-.24.72-.51.99v.06c0,.24-.12.48-.21.69-.03.09-.06.15-.12.24,0,.03-.06.06-.06.06.03.33-.24.57-.27.87-.21.15-.15.39-.18.57,0,.06,0,.12-.03.15-.27.3-.18.72-.3,1.08-.06.21-.09.33-.33.57-.06-.21.03-.36.06-.54.03-.09.09-.18,0-.3l-.39.21c0-.27.03-.33.27-.33.15,0,.24-.06.27-.18.06-.15.09-.33.15-.48l.09-.24c.03-.09.09-.15.12-.21-.15-.09-.27-.18-.39-.27-.09-.06-.15-.03-.18.09-.03.09,0,.15-.03.24,0,.06,0,.12-.03.15-.18.15-.15.39-.24.6-.09.15-.09.33-.15.48l-.24.39.06.45.36-.27c.06.24.03.36-.15.36-.18.03-.3.09-.36.24-.03.03-.09.06-.12.06-.18,0-.24.15-.27.3l.24-.15c.06.33-.03.63-.09.9-.03.12-.06.21-.06.33-.06.24-.09.48-.15.72-.06.24-.12.48-.03.69.03.06-.03.12-.03.15-.03.18-.03.33.12.45.03.03.06.09.09.15l-.24.12c-.03.12-.09.24-.09.36-.03.15,0,.3.21.36l-.21.45.42.09c-.06.15-.18.21-.3.21-.15,0-.21.09-.27.15.09.03.18.03.24.09.09.06.12.18.15.27l-.33.12.09.21c.12.03.18-.15.33-.06.09.09,0,.18,0,.24q.21.21.39.18c.18.24.09.57.21.81l.09.39s0,.03.03.06c.03.12.24.12.21.3,0,.12.06.24.06.36,0,.03.03.03.06.06l.06-.24c.12.21.24.39.39.57.09.15.21.27.18.45-.03.09.03.21.18.21.06-.03.15.03.21.06.15.12.27.24.39.36,0,0,0,.03.03.03.33.06.57.33.87.36.21.03.33.18.45.3-.3-.03-.6.03-.87-.09-.48-.18-.96-.42-1.41-.72-.27-.24-.57-.45-.78-.78-.03-.06-.06-.12-.09-.15-.12-.12-.18-.24-.24-.36-.09-.21-.24-.39-.39-.57-.21-.21-.36-.45-.39-.75-.06-.21-.09-.45-.21-.66,0-.03-.03-.03-.03-.06,0-.39-.18-.75-.18-1.17,0-.24-.06-.48-.12-.72-.09-.42-.06-.84-.03-1.26.03-.39.03-.78.09-1.17,0-.21.06-.45.09-.66,0-.06.06-.12.12-.15l.09.06c-.09.21-.18.69-.12.84.21-.06,0-.36.24-.42l.09.21h.03l.09-.33c-.09-.06-.15-.09-.24-.12.03-.15.09-.27.12-.39.06-.12,0-.18-.12-.15.06-.12.21-.24.21-.42-.18.09-.27.24-.24.39t.03.03l-.15.21s-.06,0-.06-.03c0-.18,0-.36.03-.54.15-.63.3-1.26.48-1.89.21-.69.45-1.41.66-2.13.06-.24.15-.48.27-.72.15-.33.27-.69.42-1.02.12-.33.24-.63.39-.96.06-.15.12-.33.15-.48.03-.06.03-.09.06-.12.09-.21.21-.39.27-.57.12-.33.3-.63.48-.9.15-.24.24-.48.39-.72l.27-.54c.09-.15.15-.3.18-.48.06-.24.21-.39.42-.54l-.18-.06c.06-.06.09-.09.15-.12-.12-.33.21-.48.3-.72.06-.24.24-.48.36-.69l.72-1.14.54-.72c.24-.36.51-.72.78-1.05.36-.39.72-.81,1.17-1.14.27-.15.51-.36.75-.54.09-.06.21-.09.33-.12.09-.03.18,0,.27,0,.27,0,.51.06.75-.06.09-.06.24-.03.36,0,.21.06.42.15.63.24.09.03.21.03.3.06.12,0,.24,0,.36.03,0,.03.03.06.03.12.06.3,0,.42-.27.57Zm-11.52,18.57s-.03-.03-.06-.03c-.12.15-.36.21-.27.54l.33-.51Zm-.09,1.41q-.09.15-.03.33l.03-.33Zm.36-4.8c-.18.18-.18.36-.24.54l.09.06c.03-.06.12-.12.15-.18.03-.12.12-.24,0-.42Zm-.15,4.26l-.09.03.09.09v-.12Zm.09-2.52h-.06v.12h.06v-.12Zm-.03,5.67s.06.03.06.03c.21.09.24.12.18.33,0,.03-.03.03-.03.06,0,.06,0,.15.03.15.03.03.12,0,.15,0,.09-.03.15-.09.27-.18l-.27-.36c.06-.06.09-.09.15-.18-.18-.06-.33-.21-.51-.06l-.03.21Zm.36-8.46c-.12.27-.3.54-.27.87.24-.03.15-.27.24-.39.12-.15.09-.3.03-.48Zm.21,6.45c0,.06-.03.15-.06.24-.03-.06-.09-.09-.12-.15,0-.09.03-.21.06-.33,0-.06-.03-.12-.12-.09-.06.09,0,.3-.18.33v-.57c.3.15.36-.09.45-.3l.15.18c-.18.15-.27.33-.15.57.03.03,0,.06-.03.12Zm-.39.69l.3-.03q-.09.21-.3.03Zm.6-2.37c-.03.12-.09.24-.15.39.21.03.12.15.12.27-.18,0-.3-.03-.33-.21-.03-.06-.09-.12-.15-.18-.06-.06-.12-.09-.06-.21l.24.06.09-.3.24.18Zm-.42-3.39c-.12.03-.18.09-.15.18l.09.03.06-.21Zm-.03,1.77l-.03-.06c.06-.09.15-.15.27-.27q.03.24-.24.33Zm0,1.02l.12.09-.12.03s-.03-.06,0-.12Zm1.17-6.48q-.12-.18-.06-.39c.06-.3.18-.57.36-.81.09-.09.12-.21.03-.33l-.06-.03c-.12.3-.27.57-.39.84-.15.45-.33.87-.48,1.29-.18.48-.36.99-.51,1.47-.03.03,0,.09.03.18.15-.24.3-.42.3-.63s.09-.33.15-.51c.06-.06.12-.12.12-.18-.03-.27.15-.48.24-.72.03-.15.12-.21.27-.18Zm-.9,9.18l-.15.09-.06-.06c.06-.06.09-.12.12-.21l.09.18Zm.3-2.7c-.03.09-.09.15-.12.27-.09-.12-.18-.21-.33-.18.09-.15.18-.3.24-.48.27.06.33.15.21.39Zm-.3-3.87c-.12.09-.09.21-.12.39.15-.12.12-.27.12-.39Zm.21,7.2s-.09,0-.21,0l.24-.24c.09.12.06.18-.03.24Zm.33-4.95c-.09.18-.09.39-.09.57-.03.21-.12.36-.39.45l.12-.3c0-.09.06-.18.03-.27-.03-.12,0-.21.06-.33.06-.09.03-.24.03-.39h-.27s-.03-.09,0-.12.06-.06.12-.06c.06-.03.18,0,.21-.03.06-.06.09-.15.09-.21,0-.18.15-.18.24-.27.09.09.06.15.06.24-.06.24-.12.48-.21.72Zm-.48-2.46l-.03.21c.06-.06.09-.09.03-.21Zm.09,6.72c.06.12.06.18-.09.27l-.03-.21s.06-.03.12-.06Zm.06-6.99s-.03-.03-.06-.03c0,0-.03.03-.03.06.03,0,.03.03.06.03l.03-.06Zm.36-1.23c-.18.15-.18.3-.21.48.21-.12.21-.27.21-.48Zm-.15,9.78s.06.06.06.09h-.06s-.03,0-.03-.03c0,0,.03-.03.03-.06Zm.3-10.14c-.06.03-.12.06-.12.12-.03,0,0,.03.03.09.03-.06.06-.09.06-.12s0-.06.03-.09Zm.03,1.86s-.06.06-.12.09l-.03-.06.12-.09.03.06Zm1.05-3.15c.3-.3.54-.57.15-.93-.09.03-.06.09-.06.18,0,.27.03.54-.3.66,0,0,0,.03-.03.03q.15.24-.06.36c-.06,0-.09.06-.09.09-.06.24-.36.48-.09.78-.06,0-.09.03-.12.03-.18-.03-.21.03-.24.21,0,.09-.03.21-.06.36l.09.18c.06.12.15.12.27.06.09-.03.12-.12.06-.21-.09-.12-.06-.21,0-.3l.21-.39s.06-.09.03-.12c-.06-.18.12-.15.15-.21-.12-.18-.12-.24,0-.27.24-.06.27-.24.3-.42l-.21-.09Zm-.45-.96l.39-.84c-.27.15-.54.51-.39.84Zm.15,1.35l.03.03v.09l-.06.03s-.03-.06-.03-.09l.06-.06Zm.24-2.49l.24-.09c.03-.06.03-.12.06-.18,0-.06.03-.12.03-.18l-.06-.03c-.15.15-.21.21-.27.48Zm.12.57s-.03.06-.06.12h.06s.03-.06.03-.09l-.03-.03Zm.57-.18c0,.21-.3.06-.27.33h.12c0,.06-.03.09,0,.12.12.09.09.21.06.33,0,.06.03.12.06.15h.06c0-.09.03-.18,0-.24-.03-.12-.03-.24.03-.39.06-.09.06-.18-.06-.3Zm.39-.57c-.21.09-.24.24-.12.54.09-.18.18-.33.12-.54Zm.45-.9c-.27.12-.3.33-.33.57.06,0,.12.03.12,0,.06-.18.33-.3.21-.57Zm.3-.54c-.09.09-.12.18-.03.27q.06-.12.03-.27Zm.33-.72c-.09.15-.21.21-.12.42.12-.12.18-.24.12-.42Zm.27-2.67s-.03,0-.06-.03c-.15.09-.15.24-.21.36l.06.06.21-.39Zm.3,1.83c-.24.09-.12.36-.24.48.18-.09.24-.24.24-.48Zm.48-3.12c-.27.24-.42.51-.39.69.09-.15.21-.27.27-.42.06-.09.09-.18.12-.27Zm-.18,2.52s-.09.03-.12.06c-.03.06-.03.15-.06.21l.09.06.12-.21s-.03-.09-.03-.12Zm.81-3.33c-.21.09-.48.42-.63.78.3-.18.39-.54.63-.78Z"/><path class="cls-1" d="m38.07,32.29c.03.3-.18.51-.45.72.12-.33.3-.51.45-.72Zm0-.03c.18-.39.48-.72.75-1.05-.21.39-.36.81-.75,1.05Zm1.17-1.77s.06.03.09.03c-.09.15-.18.27-.27.39l-.06-.06.24-.36Zm.36-.45c0,.12-.03.21-.21.24,0-.15.12-.18.21-.24Zm5.94-10.35c0-.06-.03-.12,0-.18.06-.3.15-.57.24-.87.03-.18.03-.33.03-.54-.24.54-.42,1.08-.57,1.65-.12.36-.27.69-.39,1.05-.06.09-.09.21-.12.3l-.06.24c-.24.54-.48,1.08-.75,1.65l-.18.39c-.12.3-.15.33-.36.48.03.09.09.21.06.27-.18.42-.39.81-.6,1.26l-.21-.36c.36-.12.42-.45.57-.72l-.06-.03c-.03.06-.12.12-.15.21-.06.09-.09.21-.24.21-.06,0-.12.09-.15.15l-.69,1.32c-.09.18-.15.33-.06.54-.3.18-.45.48-.63.75-.27.48-.57.96-.87,1.44-.18.33-.39.66-.6.99-.03.06-.09.09-.15.15.18-.39.39-.75.6-1.11.42-.69.81-1.38,1.2-2.04.15-.24.21-.48.33-.69.09-.21.21-.39.3-.6l.18-.27c.21-.48.42-.99.66-1.47.12-.27.27-.54.39-.81.09-.03.21-.03.24-.09.09-.18.18-.39.15-.54-.06-.24.06-.3.15-.36.06-.24.09-.42.15-.63,0-.03.06-.09.09-.12.24-.15.3-.33.21-.63.06-.03.15-.09.18-.15.03-.12,0-.27.06-.39.03-.09.15-.18.21-.3.15-.48.33-.93.48-1.41l.36-1.11c.03-.09.09-.15.15-.24.24.33.12.66.12.99.18-.09.24.06.3.15-.03.09-.12.15-.12.24.03.45-.36.78-.45,1.23Zm-3.75,9.15l-.33.33q.06-.24.33-.33Zm.12-1.83l-.18.36c-.12-.21.03-.3.18-.36Zm.33-.69c.03.09.03.18-.12.27l.03-.27h.09Zm.24-.27q-.03-.15.09-.24c.06.12,0,.18-.09.24Zm.3,1.65c0,.24-.06.33-.3.45,0-.24.18-.33.3-.45Zm.42-.57s-.09.03-.15.03c-.03-.27.06-.42.27-.6.06.24-.06.39-.12.57Zm.03,0l.18-.06c-.03.12-.06.18-.09.27l-.09-.06v-.15Zm.54-.78l.06.03c-.06.06-.09.12-.18.21-.03-.15.03-.21.12-.24Zm.03-1.59c.06.15.06.21-.06.24-.03,0-.09,0-.09-.03-.03-.12.03-.15.15-.21Zm.63.27c.12.39-.3.48-.33.75h-.06l-.09-.21.48-.54Zm3.78-12.54c-.06.15-.12.33-.15.48,0,.06.03.15.06.21.06.12.03.24-.06.3-.33.18-.36.54-.42.84-.03.15-.06.27-.21.33-.21.12-.24.24-.09.45.03.03.06.06.06.09.09.45.33.87.24,1.38-.06.18-.09.36-.18.54s-.09.36.03.54c-.15.06-.21.18-.24.33-.03.21-.09.42-.15.63-.03.09-.15.15-.21.21-.06-.36-.03-.69.15-1.02.15-.27.18-.54.15-.9-.09.06-.18.09-.21.12-.03.18-.09.36-.09.54-.06.3-.09.57-.39.75-.18.12-.18.33-.03.51-.33.12-.21.54-.48.72v-.24c.09-.27.21-.57.3-.87l.09-.24.09-.3s.09-.09.09-.12c-.12-.21.09-.3.15-.45-.15-.3-.06-.6,0-.87.09-.36.21-.69.33-1.05,0-.09,0-.18-.03-.27-.03-.15-.09-.27-.15-.48-.06.12-.06.18-.09.24-.03.15-.06.27-.12.42q-.06.18.06.6c-.27.06-.36.24-.3.48-.15.06-.21.03-.21-.09.03-.15.06-.3.12-.45.03-.09.06-.18,0-.27-.03-.06,0-.18.03-.24.06-.12.12-.21.18-.3l-.27-.18.15-.33c.09-.18.12-.39-.03-.57-.03-.06-.06-.12-.06-.18.03-.33.03-.63.18-.87-.03-.21-.06-.39-.06-.54,0-.51.06-.99.03-1.5-.03-.6-.06-1.23-.27-1.8-.12-.33-.12-.66-.21-.99-.06-.21-.18-.42-.27-.63-.03-.06-.09-.15-.09-.24,0-.33-.21-.54-.39-.78-.03-.06-.12-.09-.18-.15-.33-.15-.57-.36-.75-.69-.12-.24,0-.51.24-.6.36-.09.69.03.93.24.21.15.39.18.6.18.12-.03.24-.03.36-.03.24.03.42.12.54.33.12.18.24.33.33.54.12.18.18.36.24.57.06.3.12.57.3.84.03.06.06.15.06.24.03.24.03.48.06.72.03.24.06.48-.06.69.33.3.27.69.27,1.08l-.24.06c.06.18.15.33.06.54-.06.15,0,.33,0,.51l.24.03c-.03.06-.03.12-.06.12-.18.21-.21.27-.03.48.12.12.15.21.06.36Zm-3.36,11.76l-.21.27q.03-.18.21-.27Zm-.09-1.53l-.03-.03s.06-.06.06-.09l.03.06s-.03.03-.06.06Zm.24-.72q.03.21-.12.42c-.15-.21.03-.27.12-.42Zm.33-1.62l-.12.15-.06-.06.15-.12s.03.03.03.03Zm.78.9l-.09.54c-.06-.03-.15-.06-.15-.09,0-.18.06-.33.24-.45Zm-.03-4.26c-.03-.12,0-.21.18-.18l.06.36c-.18,0-.24-.06-.24-.18Zm.81,1.83c.03.15,0,.33-.06.48-.09.24-.12.48-.18.75-.06.18-.15.36-.36.54,0-.12,0-.18.03-.24.09-.27.21-.57.33-.84.03-.06.03-.12.03-.15-.06-.24.09-.39.21-.54Zm.09-2.1l.33-.51c-.42,0-.48.09-.33.51Zm.27-2.97c-.09-.03-.12-.03-.15-.03s-.06.03-.15.06c.09.03.12.06.15.06.06,0,.09-.03.15-.09Zm-.09.3s-.03-.06-.03-.09l-.15.09s0,.03.03.03l.15-.03Zm.6,1.41s.03.03.06.03l-.03.12s-.06,0-.09-.03l.06-.12Zm.21-1.8c.03.06.06.12.06.15l-.06.06s-.06-.06-.06-.09.03-.06.06-.12Z"/><path class="cls-1" d="m55.95,19.69c-.09-.06-.18-.09-.3-.09q-.3-.03-.33-.33s-.03-.06-.03-.12l-.21.06c-.18-.21-.09-.48-.18-.69.12-.18.27-.24.42-.33.75-.33,1.56-.36,2.34-.48.21,0,.39-.03.6-.06.66-.06,1.32-.06,1.98-.06.6,0,1.2.03,1.8.09.36.06.72.09,1.11.12.18.03.39.12.51.3.03.09.12.15.18.18.27.21.33.6.12.87s-.51.3-.81.3c-.21.03-.45,0-.66,0-.69,0-1.41-.03-2.1,0-.27,0-.57,0-.87.12-.18.06-.39.03-.6.06-.18.03-.36.03-.54.06-.33.03-.66.09-.99.09s-.6.06-.9.09c-.18,0-.39-.09-.54-.18Zm.3,3.18c-.15-.09-.33-.21-.51-.27-.06,0-.12-.03-.12-.09-.06-.12-.09-.24-.24-.27-.06-.03-.09-.15-.09-.21-.03-.09,0-.15,0-.21-.03-.15-.15-.3.03-.39.12-.09.21-.18.36-.21.27-.06.54-.15.81-.21.39-.06.78-.06,1.17-.09l1.35-.09c.63,0,1.29-.03,1.92-.03.24,0,.48.03.72.06.03.03.09.03.15.03.3-.09.57.03.87.09l.03.18c.06,0,.15,0,.18-.06.21-.15.39-.09.6,0,.09.03.18.03.27.06.03.03.06.09.12.12-.06.03-.09.12-.12.12-.09,0-.15,0-.24-.03-.24-.12-.51-.09-.75,0-.06.21.15.15.21.21-.33,0-.66.03-.96.06-.21.03-.39.09-.54.24-.06.06-.15.09-.24.09-.15.06-.3.09-.48.12-.03,0-.09.03-.09.06-.09.15-.24.15-.39.18-.12,0-.24.06-.36.06-.27.06-.54.09-.81.15-.09,0-.18,0-.24.06s-.15.09-.24.09c-.48.09-.93.15-1.41.18-.24,0-.48.12-.75.06-.06-.03-.15-.03-.21-.06Z"/><path class="cls-1" d="m65.28,24.16c.06-.06.12-.09.18-.12.21-.03.39-.12.54-.3.06-.06.15-.06.21-.09.27-.12.51-.18.75-.33.18-.06.3-.21.51-.24.03,0,.06-.03.09-.03l.42-.27s.12-.09.12-.12c0-.15.09-.21.21-.27.15-.06.3-.09.45-.15.06,0,.09-.03.12-.06.27-.3.6-.51.93-.75.15-.12.36-.18.51-.3.33-.27.72-.39,1.11-.57l.66-.27c.09-.06.15-.12.12-.18l-.54-.3-1.68-1.05c-.18-.09-.33-.21-.42-.39-.03-.09-.12-.15-.18-.21-.21-.15-.42-.33-.63-.42-.36-.15-.6-.51-.96-.63l-.06-.09c-.06-.06-.12-.12-.21-.15-.09-.09-.24-.12-.3-.21-.18-.3-.45-.42-.72-.57-.27-.12-.36-.39-.51-.6v-.09c0-.27.18-.42.45-.45.36,0,.66.06.99.18l.54.3.21.18c.15.06.27.15.42.21l1.53.93,2.55,1.53c.57.33,1.08.69,1.62,1.05.12.06.21.12.21.27,0,.3.15.51.36.66.21.18.3.45.21.69-.03.15-.12.24-.27.27-.15,0-.3.03-.45.09-.63.24-1.29.48-1.92.69l-.51.18c-.75.33-1.5.66-2.25,1.02s-1.56.69-2.37.96c-.57.21-1.2.3-1.8.33l-.24-.33Z"/><path class="cls-2" d="m13.23,6.91c.02.13.05.25.06.39.03.09-.02.14-.09.17-.06.03-.14.08-.2.14-.2.16-.39.12-.58.03-.05-.03-.12-.03-.2-.08-.16-.09-.3-.06-.44-.06-.09,0-.17-.03-.25-.03-.17-.02-.36-.03-.55-.03-.08-.03-.17-.05-.27-.05-.08,0-.16-.02-.25-.02-.02,0-.05-.02-.08-.02-.11,0-.23-.02-.34-.03-.12-.02.08-.05-.05-.06-.06-.03-.14-.02-.2-.02l-.53.05-.44.05c-.11-.02-.25,0-.38-.03-.3-.06-.36.11-.44.3-.02.05-.06.09-.08.17-.02.06-.03.12-.08.2-.03.11-.11.23-.14.34-.08.19-.16.36-.22.55-.06.11-.12.22-.17.33-.03.03-.05.06-.05.08.02.19-.06.33-.17.47-.06.08-.11.19-.14.27-.05.08-.09.17-.12.25-.06.12-.11.27-.17.39-.09.23-.17.5-.28.73-.03.13,0,.2.12.22.08,0,.17.02.25.02h.3c.23-.02.45-.02.66-.02.34.05.7.08,1.03.25.06.03.05.08.03.12-.05.08-.03.14-.02.22.02.06.03.16.03.22,0,.02-.03.06-.03.06-.11,0-.23.03-.31-.03-.06-.08-.17-.05-.27-.03-.05.02-.09.05-.16.05s-.12-.03-.2-.05c-.09-.03-.17-.02-.25.02-.06.03-.09.03-.14.03-.17-.02-.34,0-.52-.02-.06,0-.11.02-.17.02s-.11.02-.16.02c-.11.02-.22.02-.3,0l-.27.05s-.11.06-.11.11c-.11.23-.22.47-.31.7-.08.19-.14.41-.2.59-.06.17-.14.34-.2.5-.06,0-.06-.08-.05-.12,0-.03.03-.08.05-.14l.17-.48c.02-.09.03-.17.06-.27.02-.08.05-.19.09-.28.05-.11.11-.22.14-.33.05-.06.06-.14,0-.2-.05-.06-.12-.05-.19-.02-.05.02-.06.05-.09.03-.19.02-.28.17-.33.31-.06.09-.06.19-.11.27-.02.06-.08.11-.14.16-.08.06-.11.11-.09.22,0,.05.02.09.02.14-.08.14-.08.3-.2.42v.02c.02.2-.19.33-.19.53-.02.02-.03.03,0,.05.02.16-.06.27-.14.41-.03.06-.08.16-.08.23-.02.09-.06.16-.14.17-.03.08-.05.17-.05.23,0,.05-.02.06-.02.09-.02.02-.05.03-.05.05-.05.23-.09.48-.17.7-.09.27-.12.55-.28.8-.11.19-.11.39-.11.59-.03.14-.03.28-.16.38-.06.06-.11.11-.17.16.03.09-.09-.03-.27-.09-.08-.03-.14-.06-.19-.11-.12-.08-.22-.19-.28-.31-.06-.09-.14-.14-.11-.27-.16-.11-.08-.22-.03-.34.09-.12.16-.23.22-.36.06-.17.14-.33.2-.5.02-.14.08-.28.11-.42,0-.05.02-.09.05-.14.02-.08.05-.16.09-.23.02-.09.05-.19.08-.27.03-.16.06-.31.11-.47.06-.13.12-.28.17-.44.05-.13.08-.23.09-.34.08-.14.14-.3.19-.44.09-.17.19-.33.28-.47.08-.14.08-.3.14-.44,0-.03.02-.05.02-.08,0-.05.02-.11,0-.14-.02-.02-.08-.02-.11-.02-.23-.02-.47.06-.69-.02-.06-.02-.12,0-.2.02-.06.02-.09,0-.17-.05-.06-.05-.38-.06-.47-.09.22-.02.17-.02.12-.03-.12-.05-.12-.08-.11-.19s-.02-.25.14-.3c.12-.22.34-.17.53-.22.06,0,.11-.02.16-.02.2-.02.41,0,.61-.03.14-.02.25.02.36-.08.05-.02.11-.02.16-.02.13-.02.2-.09.25-.19t-.02-.03s.02.02.03.02c0-.02.02-.02.02-.03.03-.14.11-.28.16-.41.03-.13.06-.27.11-.39.02-.08.05-.14.08-.22l.28-.64c.05-.17.11-.36.19-.55l.28-.66s.03-.11.06-.16c.06-.17.14-.34.2-.52.08-.17.17-.36.22-.55.03-.08,0-.16-.02-.22-.05-.03-.12-.02-.2,0l-.2.05c-.14.03-.3.03-.44.06-.08.03-.17.05-.27.02-.05,0-.09.02-.12.02-.14.02-.28.02-.44.08-.05.02-.14,0-.2,0-.14-.03-.27-.05-.39-.05s-.23.06-.33.06c-.14.02-.28.02-.42.02-.2,0-.41.02-.61.03-.28.03-.58.09-.88.13-.17,0-.3.08-.45.12-.12.03-.25.06-.36.16-.11.09-.17.27-.13.41.05.08.08.19.09.28l.06.11c.06.19.16.34.28.48.17.23.41.42.56.69.13.25.31.47.34.75v.14s-.05-.02-.05-.02c-.08-.09-.14-.09-.25-.08-.11.03-.2-.06-.28-.14-.14-.17-.25-.31-.39-.47-.09-.09-.19-.2-.28-.28-.09-.12-.22-.25-.3-.38-.09-.16-.17-.33-.23-.52-.08-.23-.14-.5-.14-.75,0-.11.03-.22.06-.31.02-.09.03-.17.06-.27.06-.27.22-.44.48-.53l.09-.05c.14-.06.27-.27.41-.31.27-.09.55-.17.81-.16.08,0,.14-.02.22-.03l.33-.05c.22-.02.42-.05.66-.06.08-.02.19.02.28,0,.14-.02.28-.05.41-.03.16.02.31-.02.47-.06.09-.02.2,0,.31.02.06,0,.11-.03.17-.03s.16-.02.23,0c.09.06.2.02.31-.02.05,0,.11,0,.16-.02.19-.02.38-.02.58-.03.06,0,.11.02.17.03.09,0,.2-.02.28-.02l.34-.03s0,.02.02.02c-.03.02-.06.05-.09.05l-.23.05c-.06.02-.11.09-.08.14.09,0,.2-.02.31,0,.06-.02.09,0,.11.03-.06.03-.16.06-.23.08.05.03.11.05.17.06.09.02.19.02.28.02.05-.03.08-.02.17-.02-.03.02-.05.02-.06.03.03.03.11.05.16.08s.09.02.14-.05c.03-.03.08-.05.12-.05.08.02.17.03.25.03.12.03.27-.08.25-.23,0-.08,0-.17.03-.25,0-.02.02-.05.03-.06.06-.06.14-.14.2-.23.11-.2.19-.42.28-.5l.28-.64c.06-.16.11-.33.19-.5.08-.11.13-.25.2-.38.02-.03.03-.08.03-.11.06-.14.09-.28.14-.42.03-.09.06-.17.08-.27.03-.16.08-.31.13-.45,0-.16.02-.3.05-.44l-.03-.39c-.02-.06.02-.09.08-.12.12-.06.19-.16.25-.28.05-.06.11-.11.16-.17.17-.23.33-.48.45-.75.03-.14.13-.3.3-.36v.08l-.23.67c-.11.36-.27.7-.38,1.06-.09.28-.22.56-.33.84-.11.31-.23.61-.36.91-.14.27-.28.55-.38.81-.09.19-.13.39-.2.58-.06.14-.11.3-.17.42-.02.02-.02-.09-.03-.05-.11.09-.11.23-.14.38v.05c-.06.08-.08.16-.08.25,0,.03-.06.09-.11.14-.02.03-.03.05-.03.08l-.05.38v.16h.02v.02h-.02s.03.08.06.08.05.02.06.05c.05-.05.08-.2.14-.27l-.02-.02.02-.02v.02s.03-.03.05-.03c.08-.05.19-.06.28-.08,0,0,.05.03.06.06h.02s.08.03.09.03l-.05.03h.02s.09-.03.11-.06c.03-.05.05-.13.06-.17.03-.06.03-.16,0-.22-.03-.02-.05-.06-.08-.09.14-.02.27,0,.39-.02.16,0,.33,0,.5-.02.03-.05.02-.06,0-.06v-.05q0-.12.11-.12c.08.02.16,0,.22.02.17.05.33,0,.48.02.14.03.3.03.47.03.22.03.44.05.64.06.17.02.34.02.5.02.05.02.09.06.13.06.06.02.14.02.22.05.08,0,.14.03.2.08.06.03.13.02.17.12.02.11.02.14-.05.2-.08.05-.11.33-.08.44Zm-8.1,7.59s.03.02.05.02c-.03.08-.05.14-.08.2-.09.27-.23.52-.27.77-.02.05-.02.06-.02.08-.13.19-.14.41-.23.61-.05.09-.11.22-.16.34-.05.11-.08.22-.11.33-.03.12-.09.25-.12.38-.02.02-.05.06-.03.09.02.2-.11.38-.17.56-.03.16-.08.28-.11.44-.08.19-.11.39-.22.56-.14.19-.19.41-.22.64-.03.08-.08.16-.11.25-.05.16-.09.31-.12.45-.03.09-.06.17-.08.25-.02.05-.06.09-.09.11-.02.02-.06.02-.08,0-.05,0-.08-.05-.06-.08.06-.2.14-.41.2-.61.03-.08.05-.19.09-.28.02-.11.06-.2.08-.3.09-.25.16-.52.27-.75.09-.2.14-.39.17-.59.03-.03.06-.06.06-.11.03-.09.08-.19.11-.28l.19-.5c.06-.14.08-.31.14-.47.02-.08.08-.14.09-.2.06-.16.16-.31.22-.48.03-.08.05-.17.08-.25.03-.05.03-.12.06-.17.09-.25.13-.55.3-.77.03-.03.03-.05.03-.06.05-.08.08-.12.14-.17Zm-2.05.67s-.03.05-.03.06c-.02-.02-.03-.03-.03-.05-.02,0-.03.02-.06.02.05.03.05.08.08.12s.08.06.12.11c.02.02.06,0,.08-.02.03-.08-.05-.25-.16-.25Zm.77-.48s-.06-.08-.08-.09c-.11-.02-.22.05-.2.12-.02.02,0,.03.02.05v.02s.05.03.06.03c.02.02.06,0,.09-.02v-.02h.02s.08-.06.09-.09Zm.14-.99c-.02-.11-.02-.22-.03-.3v-.02s-.02-.03,0-.05c0-.02-.05-.05-.08-.05-.02,0-.05.08-.05.08.06.08-.02.12-.05.2.17.09.05.2.09.36.02.06,0,.11-.06.16-.03.06-.05.11-.06.17-.03.03-.03.11.06.12.06,0,.11-.03.12-.11.03-.08.03-.14.06-.17.17-.11-.12-.3-.02-.41Zm-.09.38c-.02.08-.05.09-.09.19q0-.11.09-.19Zm.05-.56s0,.08-.05.13c-.02,0-.02-.05-.02-.05,0-.03.02-.05.06-.08Zm3.8-6.51s-.03.03-.05-.02h-.05c-.09-.02-.16.02-.14.08.05.12.06.25-.08.34.02.16-.08.25-.19.34-.09.12-.13.28-.2.44-.02.05-.02.12-.05.17l-.2.38c-.06.16-.13.31-.23.45-.08.14-.09.31-.16.48-.02.08-.02.17-.12.23-.08.03-.14.11-.13.23.03.08,0,.17-.03.23-.02.12-.08.25-.11.36s-.06.19-.12.28c-.08.14-.16.3-.17.47,0,.11.11.19.22.17.22-.05.3-.22.36-.39.12-.33.22-.64.38-.99.09-.3.23-.58.34-.89.12-.3.28-.59.34-.89.03-.06.05-.11.06-.16.08-.16.14-.31.22-.44.05-.14.09-.27.13-.39.03-.08.02-.14.03-.22,0-.02,0-.03.02-.06.06-.11.05-.19-.06-.23Zm-.66-.56s-.05-.06-.05-.09c0-.05.03-.06.09-.05.08-.02.17.03.25.08-.09.03-.19.08-.3.06Zm.31-.28s-.11-.02-.16-.02v-.03c.17-.02.36,0,.53-.02.02.09-.03.14-.09.09-.09-.06-.19-.02-.28-.03Zm.38.34c.06-.02.09-.05.14.02h-.12l-.02-.02Zm.94.52s-.06-.05-.11-.03c-.06,0-.09.02-.12.05-.03.02-.05.06-.08.11.03.02.06.03.09.03.06,0,.11,0,.17-.02.05-.02.09-.11.05-.14Zm-.06-.66s.02-.02,0-.06c.02.02.03,0,.05.02.02.05,0,.05-.02.06s-.06.02-.03-.02Zm.45.03s.08-.02.14.05c-.06.02-.13.06-.17-.02-.03,0-.02-.03.03-.03Zm1.11-.41s-.02.05-.06.05c-.05-.02.02-.05.06-.05Z"/><path class="cls-2" d="m15.64,15.08s.08.06.12.09c-.06.17-.16.31-.2.48,0,.05-.05.06-.05.08-.06.05-.08.11-.05.2.02.08-.02.13-.08.14-.03.03-.09.05-.16-.03-.03-.06-.06,0-.06.03-.02.08-.03.12-.12.14-.02,0-.05.05-.08.08.16.05.19-.12.33-.14.03.31-.12.48-.3.64-.03.03-.05.05-.08.09,0,.06-.52.66-.58.7-.08.09-.19.17-.27.28-.06.09-.19.12-.28.17-.09.06-.19.14-.27.23-.12.14-.27.2-.44.27-.03,0-.06,0-.08.02-.11.12-.2.09-.34.06-.08-.03-.19-.03-.27-.05-.17-.02-.27-.09-.42-.2-.09-.08-.2-.16-.27-.28-.08-.14-.17-.23-.23-.36-.11-.14-.08-.31-.05-.45,0-.16.05-.31.12-.45.02,0,.03-.02.02-.02-.09-.14.03-.2.06-.3.12-.31.33-.55.41-.88.03-.09.09-.19.17-.25.05-.09.06-.16.09-.23.06-.16.16-.3.25-.44.11-.14.19-.3.23-.47.06-.16.13-.31.25-.42.02-.02.03-.03.03-.05.2-.44.5-.83.75-1.25.19-.34.42-.67.61-1.03.05-.03.09-.06.09-.14-.06.02-.11.05-.17.08-.02.02-.03.02,0,.03-.14.03-.27.09-.36.23-.03.05-.09.05-.17.06-.03.02-.05.02-.06.06,0,0,0,.02.02.02.03.03.06.02.08-.02,0-.02.02-.02.03-.02.02.05.03.08,0,.09-.16.06-.23.2-.39.27-.05,0-.08.05-.12.08-.03-.06.02-.08.05-.09.06-.06.12-.08.19-.14.02-.02.05-.02.03-.06-.02-.03-.05-.02-.08,0-.08.05-.16.09-.23.16l-.12.09s-.05.06-.03.09c.05.11-.03.14-.09.19-.17.2-.38.36-.55.56l-.25.38c-.11.16-.22.3-.34.44-.27.3-.48.5-.75.8-.25.27-.52.5-.73.77-.14.14-.3.44-.44.59-.14.11-.25.27-.38.38-.11.09-.56.84-.69.92-.05.06-.08.17-.13.25-.09.22-.22.42-.34.64-.03.05-.08.08-.11.12-.08-.03-.13,0-.2,0-.16.02-.28-.08-.36-.19-.06-.08-.14-.11-.22-.2-.08-.14-.09-.28-.05-.44.12-.2.28-.41.36-.64.11-.17.61-1,.69-1.19.05-.12.11-.25.16-.39.09-.19.23-.33.27-.55,0-.03.02-.05.03-.06.06-.05.06-.11.09-.17.11-.14.14-.33.23-.45.05-.05.39-.42.41-.48.14-.23.27-.45.34-.7.06-.16.14-.3.22-.45.08-.36.25-.67.31-1.03.03-.02.05-.05,0-.06-.03-.02-.05,0-.06.02-.08.02-.17-.2-.06-.38.16-.05.31-.08.47.05.08.06.17.13.28.19.09.05.2.06.31.12.06.02.14.08.19.16,0,0,.02.03.02.05.03.06.05.14.02.19-.03.09-.06.2-.08.28-.03.06-.05.13-.08.2t-.02.02c-.06.17-.12.33-.2.48-.09.19-.16.41-.27.58-.05.12-.11.28-.17.39-.08.08-.41.5-.45.55-.09.12-.09.28-.17.41-.05.09-.11.23-.14.36.12-.14.23-.3.36-.44.33-.33.61-.66.92-1,.25-.28.5-.58.77-.84s.55-.52.84-.7c.06-.02.08-.09.16-.11.2-.05.31-.23.5-.31.2-.06.38-.23.61-.3.11-.03.22-.09.31-.17.14-.11.28-.08.39.09.09.11.19.17.28.22.17.08.31.2.31.42,0,.03,0,.05-.02.06-.12.17-.22.38-.34.55-.09.13-.16.28-.27.38-.08.06-.09.17-.16.25-.19.28-.38.55-.58.83-.06.08-.08.19-.19.22v.03c.06.17-.08.23-.16.33-.03.06-.08.11-.12.17-.02.06-.03.11-.09.12-.05.02-.06.02-.05.11.02.03-.02.11-.05.16-.08.08-.11.17-.2.23-.02,0-.03.02-.03.02.03.12.02.19-.08.22,0,0-.02.02,0,.03.06.09-.02.11-.06.14-.03.03-.11.09-.06.14,0,.11-.05.12-.09.17l-.14.14s-.03-.03-.06,0c.03.02.05,0,.06,0-.02.05-.02.11-.03.17s-.05.14-.13.11c-.09,0-.06.08-.06.09.09.11-.02.2-.05.28-.05.14-.12.3-.17.44,0,.02-.02.03-.02.03-.11.06-.09.2-.14.31-.02.06-.03.12-.06.16-.08.08-.02.17-.05.25.02.02.08.05.09.02.11-.12.3-.03.41-.11.16-.12.34-.2.52-.31.03-.03.08-.08.09-.17-.02-.08.09-.14.16-.2.14-.16.31-.31.47-.45.09-.09.17-.2.31-.27.03-.02.05-.09.05-.12.53-.67.66-.72.72-.83.02-.03.05-.03.06.02.03.03.08.05.09.06-.02.05-.05.05-.09.03-.05,0-.06.02-.06.05,0,.02,0,.05-.02.05-.09-.02-.09.09-.16.14-.06.08-.61.69-.7.75-.19.17-.36.38-.58.56,0,.02-.05.03-.02.06.02.03.03,0,.06,0,.03-.03.08-.05.11.03.02.05.08.02.11,0,.23-.23.97-1.02,1.16-1.3.09-.16.27-.27.31-.45,0-.05.06-.02.09-.06-.03-.05-.08-.02-.13-.05,0-.03.05-.08,0-.12.05-.03.11.09.13,0,.02-.06-.08-.03-.09-.08.05.02.09-.02.16.03.05.06.06.03.12,0,.02-.02.02-.03,0-.06-.06-.03-.12-.06-.16-.09-.02.09-.09.06-.12.12,0,.03-.02.05-.03.08-.02-.02-.02-.03-.02-.05.02-.12.16-.2.3-.16h-.03v.02l.03-.02Zm-7.52,2.11c-.14.03-.06.17-.12.25-.02.02,0,.06.08.08.02-.11.12-.19.05-.33Zm-.02-.03s.02.02.02.02c.02,0,.02-.02.02-.03v-.05s-.03-.03-.05,0c-.03.03,0,.05.02.06Zm.11-.12s.08-.03.06-.08c0-.03-.03-.05-.06-.05-.03.02-.06.05-.05.09,0,.02.02.03.05.03Zm.2-.52s.02-.02.03-.02c.02.03,0,.05-.03.09-.02-.02-.02-.03-.02-.05l-.14.25v.02s.06-.02.09-.03c.08-.02.41-.75.42-.81.02-.02-.02-.03-.03-.03-.03.02-.05.06-.06.11l-.27.47Zm.22-.31s.02-.08.06-.12c0,.06-.05.11-.06.12Zm.05-.59s.02.02.03.02.03-.02.03-.03c-.02-.02-.02-.03-.03-.03,0,0-.03.02-.03.05Zm.2.19s0-.05-.03-.03c-.03.02-.09.03-.09.09.02.05.05.05.08.05.05-.03.06-.06.05-.11Zm0,.02s-.02.06-.05.09c-.02,0-.02-.03-.02-.03.02-.03.03-.03.06-.06Zm.06-.16l.03-.05v.05s.06,0,.09-.05c-.03-.03-.06,0-.08-.03,0-.03.02-.06.03-.06.03-.05.05-.09.08-.11-.05,0-.08,0-.09.03-.06.06-.09.13-.09.22h.03Zm.03-.64c.06-.05.14-.06.19-.11.02,0,.05.02.05-.02,0,.02-.03.02-.05.02h-.05c-.12-.05-.11.05-.14.11Zm.14.39s-.03.06-.05.08c.03,0,.06-.02.08-.06-.02,0-.03,0-.03-.02Zm-.02-.14s.05.02.06-.02c-.03-.02-.06-.02-.06.02Zm.16-.28s-.06.03-.06.06v.03l-.02.02v.05c.08-.03.11-.06.11-.12l-.03-.03Zm1.27-.16s-.09-.03-.11.03c0,.02.02.03.03.03.05.02.09,0,.08-.06Zm.39-.48c-.13.06-.14.17-.2.25-.06,0-.09.03-.09.09.02.02.03.02.05.02.06-.02.05-.06.05-.11.08.02.12-.03.19-.05.09-.05-.05-.13.02-.2Zm.2.03c-.05-.06-.09-.12-.14-.12-.03,0-.06.05-.03.08.03.06.08.05.17.05Zm.06-.25c-.06.03-.11,0-.12.05,0,.05.06.03.09.05,0-.03.02-.05.03-.09Zm.81-.97c-.09.12-.19.19-.25.28-.05.09-.14.14-.2.22-.08.06-.17.14-.22.23-.05.08-.12.13-.17.19q.11.05.12-.03s.05-.05.06-.05c.11-.06.25-.12.3-.28.05-.08.03-.23.19-.22-.02-.02-.02-.03-.02-.03t.03-.05c.06-.02.16-.14.16-.27Zm-.33,4.04c-.06.08-.09.19-.09.3.02.05.02.08.05.08.03.02.02-.02.03-.05.02-.05.02-.08.03-.09.08-.08.08-.16-.02-.23Zm.08-.17s-.05.06-.05.08.02.03,0,.03h.02s-.02-.02-.02-.03c.06,0,.06-.03.05-.08Zm.17-.25s-.02-.03-.05-.03c-.05,0-.06.03-.08.06.02.03.05.05.05.05.08,0,.09-.03.08-.08Zm.12-.19c-.06-.02-.11-.02-.11.09.05-.03.09-.06.11-.09Zm.2-.02c-.05-.06-.05-.19-.16-.16-.02,0-.06-.02-.06.05,0,.03.02.03.05.06.03.02.08.03.11.08,0,0,.02.02.03,0,.02,0,.03-.03.03-.03Zm.06-3.74s-.08-.03-.08.02c-.05.09-.12.17-.17.27.05-.02.12.03.14-.02-.02-.09.06-.13.09-.19.02-.03.05-.05.02-.08Zm-.2,3.5s.03.02.06.02c.05-.02.02-.08.03-.11.03-.03.06-.08,0-.12-.02-.03-.05-.03-.05-.02-.05.05,0,.06.02.09-.03,0-.06-.03-.09.02-.02.05,0,.08.03.12Zm.23-.03s.02-.02.02-.03c.02-.02.02-.03,0-.03-.03,0-.03.03-.02.06Zm.06-.77s.03-.02.05-.03c.12-.19.23-.39.34-.61-.03.02-.05.02-.05.02-.16.17-.28.34-.36.55-.02.03-.02.05.02.08Zm2.52.94s-.5.47-.53.47c-.02,0-.02.03-.02.05.02.02.02.05.05.05,0,0,.5-.55.5-.56Zm1.09-1.97s-.02.09-.08.09c.02.14-.06.23-.14.31-.05.06-.09-.03-.16-.03.03-.05.05-.05.08-.03s.08,0,.08-.02c-.05-.11.05-.14.06-.23,0-.05.03-.02.06,0t.02-.03s0-.08.05-.09c.02-.02.03.02.03.03Zm.16-.2s-.05.12-.16.16c.03-.09.09-.14.11-.22,0,0,.03-.02.03,0,.03,0,.02.03.02.06Z"/></g></svg>