<?xml version="1.0" encoding="UTF-8"?><svg id="Layer_2" xmlns="http://www.w3.org/2000/svg" viewBox="0 0 50.94 28.14"><defs><style>.cls-1{fill:#26a498;}</style></defs><g id="Layer_1-2"><path class="cls-1" d="m12.12,1.05c-.39.24-.78.48-1.2.72-.48.3-.93.66-1.41,1.02-.12.09-.21.21-.3.33-.06.06-.12.09-.15.12-.21.21-.45.42-.66.66l-.81,1.11c-.12.15-.24.33-.33.51-.33.51-.63,1.02-.96,1.5-.3.54-.63,1.08-.96,1.59-.06.12-.06.27-.12.39-.27.48-.51.99-.78,1.47-.15.24-.3.51-.39.78-.15.36-.24.72-.51.99v.06c0,.24-.12.48-.21.69-.03.09-.06.15-.12.24,0,.03-.06.06-.06.06.03.33-.24.57-.27.87-.21.15-.15.39-.18.57,0,.06,0,.12-.03.15-.27.3-.18.72-.3,1.08-.06.21-.09.33-.33.57-.06-.21.03-.36.06-.54.03-.09.09-.18,0-.3l-.39.21c0-.27.03-.33.27-.33.15,0,.24-.06.27-.18.06-.15.09-.33.15-.48l.09-.24c.03-.09.09-.15.12-.21-.15-.09-.27-.18-.39-.27-.09-.06-.15-.03-.18.09-.03.09,0,.15-.03.24,0,.06,0,.12-.03.15-.18.15-.15.39-.24.6-.09.15-.09.33-.15.48l-.24.39.06.45.36-.27c.06.24.03.36-.15.36-.18.03-.3.09-.36.24-.03.03-.09.06-.12.06-.18,0-.24.15-.27.3l.24-.15c.06.33-.03.63-.09.9-.03.12-.06.21-.06.33-.06.24-.09.48-.15.72-.06.24-.12.48-.03.69.03.06-.03.12-.03.15-.03.18-.03.33.12.45.03.03.06.09.09.15l-.24.12c-.03.12-.09.24-.09.36-.03.15,0,.3.21.36l-.21.45.42.09c-.06.15-.18.21-.3.21-.15,0-.21.09-.27.15.09.03.18.03.24.09.09.06.12.18.15.27l-.33.12.09.21c.12.03.18-.15.33-.06.09.09,0,.18,0,.24q.21.21.39.18c.18.24.09.57.21.81l.09.39s0,.03.03.06c.03.12.24.12.21.3,0,.12.06.24.06.36,0,.03.03.03.06.06l.06-.24c.12.21.24.39.39.57.09.15.21.27.18.45-.03.09.03.21.18.21.06-.03.15.03.21.06.15.12.27.24.39.36,0,0,0,.03.03.03.33.06.57.33.87.36.21.03.33.18.45.3-.3-.03-.6.03-.87-.09-.48-.18-.96-.42-1.41-.72-.27-.24-.57-.45-.78-.78-.03-.06-.06-.12-.09-.15-.12-.12-.18-.24-.24-.36-.09-.21-.24-.39-.39-.57-.21-.21-.36-.45-.39-.75-.06-.21-.09-.45-.21-.66,0-.03-.03-.03-.03-.06,0-.39-.18-.75-.18-1.17,0-.24-.06-.48-.12-.72-.09-.42-.06-.84-.03-1.26.03-.39.03-.78.09-1.17,0-.21.06-.45.09-.66,0-.06.06-.12.12-.15l.09.06c-.09.21-.18.69-.12.84.21-.06,0-.36.24-.42l.09.21h.03l.09-.33c-.09-.06-.15-.09-.24-.12.03-.15.09-.27.12-.39.06-.12,0-.18-.12-.15.06-.12.21-.24.21-.42-.18.09-.27.24-.24.39t.03.03l-.15.21s-.06,0-.06-.03c0-.18,0-.36.03-.54.15-.63.3-1.26.48-1.89.21-.69.45-1.41.66-2.13.06-.24.15-.48.27-.72.15-.33.27-.69.42-1.02.12-.33.24-.63.39-.96.06-.15.12-.33.15-.48.03-.06.03-.09.06-.12.09-.21.21-.39.27-.57.12-.33.3-.63.48-.9.15-.24.24-.48.39-.72l.27-.54c.09-.15.15-.3.18-.48.06-.24.21-.39.42-.54l-.18-.06c.06-.06.09-.09.15-.12-.12-.33.21-.48.3-.72.06-.24.24-.48.36-.69l.72-1.14.54-.72c.24-.36.51-.72.78-1.05.36-.39.72-.81,1.17-1.14.27-.15.51-.36.75-.54.09-.06.21-.09.33-.12.09-.03.18,0,.27,0,.27,0,.51.06.75-.06.09-.06.24-.03.36,0,.21.06.42.15.63.24.09.03.21.03.3.06.12,0,.24,0,.36.03,0,.03.03.06.03.12.06.3,0,.42-.27.57ZM.6,19.62s-.03-.03-.06-.03c-.12.15-.36.21-.27.54l.33-.51Zm-.09,1.41q-.09.15-.03.33l.03-.33Zm.36-4.8c-.18.18-.18.36-.24.54l.09.06c.03-.06.12-.12.15-.18.03-.12.12-.24,0-.42Zm-.15,4.26l-.09.03.09.09v-.12Zm.09-2.52h-.06v.12h.06v-.12Zm-.03,5.67s.06.03.06.03c.21.09.24.12.18.33,0,.03-.03.03-.03.06,0,.06,0,.15.03.15.03.03.12,0,.15,0,.09-.03.15-.09.27-.18l-.27-.36c.06-.06.09-.09.15-.18-.18-.06-.33-.21-.51-.06l-.03.21Zm.36-8.46c-.12.27-.3.54-.27.87.24-.03.15-.27.24-.39.12-.15.09-.3.03-.48Zm.21,6.45c0,.06-.03.15-.06.24-.03-.06-.09-.09-.12-.15,0-.09.03-.21.06-.33,0-.06-.03-.12-.12-.09-.06.09,0,.3-.18.33v-.57c.3.15.36-.09.45-.3l.15.18c-.18.15-.27.33-.15.57.03.03,0,.06-.03.12Zm-.39.69l.3-.03q-.09.21-.3.03Zm.6-2.37c-.03.12-.09.24-.15.39.21.03.12.15.12.27-.18,0-.3-.03-.33-.21-.03-.06-.09-.12-.15-.18s-.12-.09-.06-.21l.24.06.09-.3.24.18Zm-.42-3.39c-.12.03-.18.09-.15.18l.09.03.06-.21Zm-.03,1.77l-.03-.06c.06-.09.15-.15.27-.27q.03.24-.24.33Zm0,1.02l.12.09-.12.03s-.03-.06,0-.12Zm1.17-6.48q-.12-.18-.06-.39c.06-.3.18-.57.36-.81.09-.09.12-.21.03-.33l-.06-.03c-.12.3-.27.57-.39.84-.15.45-.33.87-.48,1.29-.18.48-.36.99-.51,1.47-.03.03,0,.09.03.18.15-.24.3-.42.3-.63s.09-.33.15-.51c.06-.06.12-.12.12-.18-.03-.27.15-.48.24-.72.03-.15.12-.21.27-.18Zm-.9,9.18l-.15.09-.06-.06c.06-.06.09-.12.12-.21l.09.18Zm.3-2.7c-.03.09-.09.15-.12.27-.09-.12-.18-.21-.33-.18.09-.15.18-.3.24-.48.27.06.33.15.21.39Zm-.3-3.87c-.12.09-.09.21-.12.39.15-.12.12-.27.12-.39Zm.21,7.2s-.09,0-.21,0l.24-.24c.09.12.06.18-.03.24Zm.33-4.95c-.09.18-.09.39-.09.57-.03.21-.12.36-.39.45l.12-.3c0-.09.06-.18.03-.27-.03-.12,0-.21.06-.33.06-.09.03-.24.03-.39h-.27s-.03-.09,0-.12.06-.06.12-.06c.06-.03.18,0,.21-.03.06-.06.09-.15.09-.21,0-.18.15-.18.24-.27.09.09.06.15.06.24-.06.24-.12.48-.21.72Zm-.48-2.46l-.03.21c.06-.06.09-.09.03-.21Zm.09,6.72c.06.12.06.18-.09.27l-.03-.21s.06-.03.12-.06Zm.06-6.99s-.03-.03-.06-.03c0,0-.03.03-.03.06.03,0,.03.03.06.03l.03-.06Zm.36-1.23c-.18.15-.18.3-.21.48.21-.12.21-.27.21-.48Zm-.15,9.78s.06.06.06.09h-.06s-.03,0-.03-.03c0,0,.03-.03.03-.06Zm.3-10.14c-.06.03-.12.06-.12.12-.03,0,0,.03.03.09.03-.06.06-.09.06-.12s0-.06.03-.09Zm.03,1.86s-.06.06-.12.09l-.03-.06.12-.09.03.06Zm1.05-3.15c.3-.3.54-.57.15-.93-.09.03-.06.09-.06.18,0,.27.03.54-.3.66,0,0,0,.03-.03.03q.15.24-.06.36c-.06,0-.09.06-.09.09-.06.24-.36.48-.09.78-.06,0-.09.03-.12.03-.18-.03-.21.03-.24.21,0,.09-.03.21-.06.36l.09.18c.06.12.15.12.27.06.09-.03.12-.12.06-.21-.09-.12-.06-.21,0-.3l.21-.39s.06-.09.03-.12c-.06-.18.12-.15.15-.21-.12-.18-.12-.24,0-.27.24-.06.27-.24.3-.42l-.21-.09Zm-.45-.96l.39-.84c-.27.15-.54.51-.39.84Zm.15,1.35l.03.03v.09l-.06.03s-.03-.06-.03-.09l.06-.06Zm.24-2.49l.24-.09c.03-.06.03-.12.06-.18,0-.06.03-.12.03-.18l-.06-.03c-.15.15-.21.21-.27.48Zm.12.57s-.03.06-.06.12h.06s.03-.06.03-.09l-.03-.03Zm.57-.18c0,.21-.3.06-.27.33h.12c0,.06-.03.09,0,.12.12.09.09.21.06.33,0,.06.03.12.06.15h.06c0-.09.03-.18,0-.24-.03-.12-.03-.24.03-.39.06-.09.06-.18-.06-.3Zm.39-.57c-.21.09-.24.24-.12.54.09-.18.18-.33.12-.54Zm.45-.9c-.27.12-.3.33-.33.57.06,0,.12.03.12,0,.06-.18.33-.3.21-.57Zm.3-.54c-.09.09-.12.18-.03.27q.06-.12.03-.27Zm.33-.72c-.09.15-.21.21-.12.42.12-.12.18-.24.12-.42Zm.27-2.67s-.03,0-.06-.03c-.15.09-.15.24-.21.36l.06.06.21-.39Zm.3,1.83c-.24.09-.12.36-.24.48.18-.09.24-.24.24-.48Zm.48-3.12c-.27.24-.42.51-.39.69.09-.15.21-.27.27-.42.06-.09.09-.18.12-.27Zm-.18,2.52s-.09.03-.12.06c-.03.06-.03.15-.06.21l.09.06.12-.21s-.03-.09-.03-.12Zm.81-3.33c-.21.09-.48.42-.63.78.3-.18.39-.54.63-.78Z"/><path class="cls-1" d="m13.89,27.42c.03.3-.18.51-.45.72.12-.33.3-.51.45-.72Zm0-.03c.18-.39.48-.72.75-1.05-.21.39-.36.81-.75,1.05Zm1.17-1.77s.06.03.09.03c-.09.15-.18.27-.27.39l-.06-.06.24-.36Zm.36-.45c0,.12-.03.21-.21.24,0-.15.12-.18.21-.24Zm5.94-10.35c0-.06-.03-.12,0-.18.06-.3.15-.57.24-.87.03-.18.03-.33.03-.54-.24.54-.42,1.08-.57,1.65-.12.36-.27.69-.39,1.05-.06.09-.09.21-.12.3l-.06.24c-.24.54-.48,1.08-.75,1.65l-.18.39c-.12.3-.15.33-.36.48.03.09.09.21.06.27-.18.42-.39.81-.6,1.26l-.21-.36c.36-.12.42-.45.57-.72l-.06-.03c-.03.06-.12.12-.15.21-.06.09-.09.21-.24.21-.06,0-.12.09-.15.15l-.69,1.32c-.09.18-.15.33-.06.54-.3.18-.45.48-.63.75-.27.48-.57.96-.87,1.44-.18.33-.39.66-.6.99-.03.06-.09.09-.15.15.18-.39.39-.75.6-1.11.42-.69.81-1.38,1.2-2.04.15-.24.21-.48.33-.69.09-.21.21-.39.3-.6l.18-.27c.21-.48.42-.99.66-1.47.12-.27.27-.54.39-.81.09-.03.21-.03.24-.09.09-.18.18-.39.15-.54-.06-.24.06-.3.15-.36.06-.24.09-.42.15-.63,0-.03.06-.09.09-.12.24-.15.3-.33.21-.63.06-.03.15-.09.18-.15.03-.12,0-.27.06-.39.03-.09.15-.18.21-.3.15-.48.33-.93.48-1.41l.36-1.11c.03-.09.09-.15.15-.24.24.33.12.66.12.99.18-.09.24.06.3.15-.03.09-.12.15-.12.24.03.45-.36.78-.45,1.23Zm-3.75,9.15l-.33.33q.06-.24.33-.33Zm.12-1.83l-.18.36c-.12-.21.03-.3.18-.36Zm.33-.69c.03.09.03.18-.12.27l.03-.27h.09Zm.24-.27q-.03-.15.09-.24c.06.12,0,.18-.09.24Zm.3,1.65c0,.24-.06.33-.3.45,0-.24.18-.33.3-.45Zm.42-.57s-.09.03-.15.03c-.03-.27.06-.42.27-.6.06.24-.06.39-.12.57Zm.03,0l.18-.06c-.03.12-.06.18-.09.27l-.09-.06v-.15Zm.54-.78l.06.03c-.06.06-.09.12-.18.21-.03-.15.03-.21.12-.24Zm.03-1.59c.06.15.06.21-.06.24-.03,0-.09,0-.09-.03-.03-.12.03-.15.15-.21Zm.63.27c.12.39-.3.48-.33.75h-.06l-.09-.21.48-.54Zm3.78-12.54c-.06.15-.12.33-.15.48,0,.06.03.15.06.21.06.12.03.24-.06.3-.33.18-.36.54-.42.84-.03.15-.06.27-.21.33-.21.12-.24.24-.09.45.03.03.06.06.06.09.09.45.33.87.24,1.38-.06.18-.09.36-.18.54s-.09.36.03.54c-.15.06-.21.18-.24.33-.03.21-.09.42-.15.63-.03.09-.15.15-.21.21-.06-.36-.03-.69.15-1.02.15-.27.18-.54.15-.9-.09.06-.18.09-.21.12-.03.18-.09.36-.09.54-.06.3-.09.57-.39.75-.18.12-.18.33-.03.51-.33.12-.21.54-.48.72v-.24c.09-.27.21-.57.3-.87l.09-.24.09-.3s.09-.09.09-.12c-.12-.21.09-.3.15-.45-.15-.3-.06-.6,0-.87.09-.36.21-.69.33-1.05,0-.09,0-.18-.03-.27-.03-.15-.09-.27-.15-.48-.06.12-.06.18-.09.24-.03.15-.06.27-.12.42q-.06.18.06.6c-.27.06-.36.24-.3.48-.15.06-.21.03-.21-.09.03-.15.06-.3.12-.45.03-.09.06-.18,0-.27-.03-.06,0-.18.03-.24.06-.12.12-.21.18-.3l-.27-.18.15-.33c.09-.18.12-.39-.03-.57-.03-.06-.06-.12-.06-.18.03-.33.03-.63.18-.87-.03-.21-.06-.39-.06-.54,0-.51.06-.99.03-1.5-.03-.6-.06-1.23-.27-1.8-.12-.33-.12-.66-.21-.99-.06-.21-.18-.42-.27-.63-.03-.06-.09-.15-.09-.24,0-.33-.21-.54-.39-.78-.03-.06-.12-.09-.18-.15-.33-.15-.57-.36-.75-.69-.12-.24,0-.51.24-.6.36-.09.69.03.93.24.21.15.39.18.6.18.12-.03.24-.03.36-.03.24.03.42.12.54.33.12.18.24.33.33.54.12.18.18.36.24.57.06.3.12.57.3.84.03.06.06.15.06.24.03.24.03.48.06.72.03.24.06.48-.06.69.33.3.27.69.27,1.08l-.24.06c.06.18.15.33.06.54-.06.15,0,.33,0,.51l.24.03c-.03.06-.03.12-.06.12-.18.21-.21.27-.03.48.12.12.15.21.06.36Zm-3.36,11.76l-.21.27q.03-.18.21-.27Zm-.09-1.53l-.03-.03s.06-.06.06-.09l.03.06s-.03.03-.06.06Zm.24-.72q.03.21-.12.42c-.15-.21.03-.27.12-.42Zm.33-1.62l-.12.15-.06-.06.15-.12s.03.03.03.03Zm.78.9l-.09.54c-.06-.03-.15-.06-.15-.09,0-.18.06-.33.24-.45Zm-.03-4.26c-.03-.12,0-.21.18-.18l.06.36c-.18,0-.24-.06-.24-.18Zm.81,1.83c.03.15,0,.33-.06.48-.09.24-.12.48-.18.75-.06.18-.15.36-.36.54,0-.12,0-.18.03-.24.09-.27.21-.57.33-.84.03-.06.03-.12.03-.15-.06-.24.09-.39.21-.54Zm.09-2.1l.33-.51c-.42,0-.48.09-.33.51Zm.27-2.97c-.09-.03-.12-.03-.15-.03s-.06.03-.15.06c.09.03.12.06.15.06.06,0,.09-.03.15-.09Zm-.09.3s-.03-.06-.03-.09l-.15.09s0,.03.03.03l.15-.03Zm.6,1.41s.03.03.06.03l-.03.12s-.06,0-.09-.03l.06-.12Zm.21-1.8c.03.06.06.12.06.15l-.06.06s-.06-.06-.06-.09.03-.06.06-.12Z"/><path class="cls-1" d="m31.77,14.82c-.09-.06-.18-.09-.3-.09q-.3-.03-.33-.33s-.03-.06-.03-.12l-.21.06c-.18-.21-.09-.48-.18-.69.12-.18.27-.24.42-.33.75-.33,1.56-.36,2.34-.48.21,0,.39-.03.6-.06.66-.06,1.32-.06,1.98-.06.6,0,1.2.03,1.8.09.36.06.72.09,1.11.12.18.03.39.12.51.3.03.09.12.15.18.18.27.21.33.6.12.87s-.51.3-.81.3c-.21.03-.45,0-.66,0-.69,0-1.41-.03-2.1,0-.27,0-.57,0-.87.12-.18.06-.39.03-.6.06-.18.03-.36.03-.54.06-.33.03-.66.09-.99.09s-.6.06-.9.09c-.18,0-.39-.09-.54-.18Zm.3,3.18c-.15-.09-.33-.21-.51-.27-.06,0-.12-.03-.12-.09-.06-.12-.09-.24-.24-.27-.06-.03-.09-.15-.09-.21-.03-.09,0-.15,0-.21-.03-.15-.15-.3.03-.39.12-.09.21-.18.36-.21.27-.06.54-.15.81-.21.39-.06.78-.06,1.17-.09l1.35-.09c.63,0,1.29-.03,1.92-.03.24,0,.48.03.72.06.03.03.09.03.15.03.3-.09.57.03.87.09l.03.18c.06,0,.15,0,.18-.06.21-.15.39-.09.6,0,.09.03.18.03.27.06.03.03.06.09.12.12-.06.03-.09.12-.12.12-.09,0-.15,0-.24-.03-.24-.12-.51-.09-.75,0-.06.21.15.15.21.21-.33,0-.66.03-.96.06-.21.03-.39.09-.54.24-.06.06-.15.09-.24.09-.15.06-.3.09-.48.12-.03,0-.09.03-.09.06-.09.15-.24.15-.39.18-.12,0-.24.06-.36.06-.27.06-.54.09-.81.15-.09,0-.18,0-.24.06s-.15.09-.24.09c-.48.09-.93.15-1.41.18-.24,0-.48.12-.75.06-.06-.03-.15-.03-.21-.06Z"/><path class="cls-1" d="m41.1,19.29c.06-.06.12-.09.18-.12.21-.03.39-.12.54-.3.06-.06.15-.06.21-.09.27-.12.51-.18.75-.33.18-.06.3-.21.51-.24.03,0,.06-.03.09-.03l.42-.27s.12-.09.12-.12c0-.15.09-.21.21-.27.15-.06.3-.09.45-.15.06,0,.09-.03.12-.06.27-.3.6-.51.93-.75.15-.12.36-.18.51-.3.33-.27.72-.39,1.11-.57l.66-.27c.09-.06.15-.12.12-.18l-.54-.3-1.68-1.05c-.18-.09-.33-.21-.42-.39-.03-.09-.12-.15-.18-.21-.21-.15-.42-.33-.63-.42-.36-.15-.6-.51-.96-.63l-.06-.09c-.06-.06-.12-.12-.21-.15-.09-.09-.24-.12-.3-.21-.18-.3-.45-.42-.72-.57-.27-.12-.36-.39-.51-.6v-.09c0-.27.18-.42.45-.45.36,0,.66.06.99.18l.54.3.21.18c.15.06.27.15.42.21l1.53.93,2.55,1.53c.57.33,1.08.69,1.62,1.05.12.06.21.12.21.27,0,.3.15.51.36.66.21.18.3.45.21.69-.03.15-.12.24-.27.27-.15,0-.3.03-.45.09-.63.24-1.29.48-1.92.69l-.51.18c-.75.33-1.5.66-2.25,1.02s-1.56.69-2.37.96c-.57.21-1.2.3-1.8.33l-.24-.33Z"/></g></svg>